<?xml version="1.0" encoding="UTF-8"?>
<svg width="200px" height="44px" viewBox="0 0 200 44" version="1.1" xmlns="http://www.w3.org/2000/svg" xmlns:xlink="http://www.w3.org/1999/xlink">
    <title>2E2E1FE2-FC1D-4D9C-B92A-86907D88B8C3</title>
    <g id="UI" stroke="none" stroke-width="1" fill="none" fill-rule="evenodd">
        <g id="Halls---Homepage" transform="translate(-40.000000, -18.000000)">
            <g id="Halls-Logo" transform="translate(40.000000, 18.000000)">
                <g transform="translate(0.000000, -0.000000)">
                    <path d="M35.123186,-4.32269345e-14 C34.6405497,-4.32269345e-14 34.2473938,0.387325729 34.2400427,0.870215463 L34.1133,9.29328264 C34.1041745,9.64512041 34.4537309,9.89100127 34.7804737,9.76045627 C36.7302835,8.98048162 38.8385218,8.18935361 41.1115256,7.39847909 C41.3079768,7.32978454 41.4430846,7.14423321 41.4430846,6.93612167 L41.4430846,0.883143219 C41.4430846,0.395690748 41.0476473,-4.32269345e-14 40.5596879,-4.32269345e-14 L35.123186,-4.32269345e-14 Z" id="Fill-2" fill="#AF8550"></path>
                    <path d="M46.718319,25.2570596 C46.718319,25.2570596 41.9649603,28.6390621 40.484352,30.8631432 C40.371551,31.032218 40.1081796,30.8748035 40.1872671,30.6872243 C40.501082,29.9434981 40.8699033,29.258834 41.2686359,28.632218 C41.7375839,27.8960963 41.9733254,27.0365272 41.9586232,26.1640304 L41.7946181,16.3817744 C41.7895484,16.1163752 41.5066587,15.9500887 41.274973,16.0793663 C38.9695231,17.3683397 36.4435408,18.8274018 33.8960123,20.3838023 C33.7132493,20.4953359 33.6007018,20.6953359 33.6007018,20.9097845 L33.5259236,24.9308238 C32.5578628,24.0639037 31.5233887,23.466692 30.5781416,22.8223321 C30.423262,22.7171356 30.2209806,22.7143473 30.0653406,22.8177693 C29.6988007,23.0613688 29.3345421,23.3059823 28.9733254,23.5516096 C28.7185725,23.7249937 28.6777614,24.0857034 28.8873938,24.3123194 C31.058243,26.6623828 32.5023494,28.7693536 33.4250364,30.3437516 L33.1938577,42.7582003 C33.1938577,43.2471736 33.5913228,43.6433714 34.0805497,43.6413589 L42.2628057,43.6114322 C42.7619185,43.6094043 43.1609046,43.1990114 43.1424001,42.7001521 C43.0612848,40.4991381 42.7702835,39.3678327 43.1178121,36.5868441 C43.6513989,32.318403 46.7167981,28.6063625 48.3586232,26.9949556 C48.8828311,26.4806337 48.8209806,25.6058555 48.2007018,25.1675792 C47.7545674,24.8524968 47.1421467,24.9123194 46.718319,25.2570596 Z" id="Fill-4" fill="#AF8550"></path>
                    <path d="M48.3619692,6.90552598 C39.6811074,9.36053232 32.401006,12.3562231 26.8476473,15.0239037 C27.2826283,14.0419011 27.3168488,12.9141445 27.2608285,12.2773891 C27.2240731,11.8591381 26.7857969,11.6033714 26.4055687,11.7820786 C26.2484078,11.8560963 26.1307905,11.9942459 26.0849097,12.1617997 C25.2684331,15.1448162 20.0653913,18.5516603 20.0653913,18.5516603 L20.0661517,18.5514068 C16.5067094,20.5590114 14.59112,21.9171863 14.59112,21.9171863 L14.2197639,0.871051965 C14.2131733,0.388162231 13.8192569,0.000329531052 13.3363672,0.000329531052 L7.76044831,0.00210392902 C7.27831903,0.00235741445 6.88567011,0.389429658 6.87755857,0.87130545 L6.75487163,8.41553866 C6.7292696,9.97447402 7.16501105,11.5080608 8.00683614,12.8206084 C8.51152562,13.6066667 8.8909933,14.2748542 9.1710947,14.8112294 C9.28592359,15.0315082 8.98630382,15.2287199 8.826608,15.0380989 C8.08592359,14.1541952 7.27223538,13.2654753 6.4892189,12.4484918 L2.81165236,8.85229404 L2.08161434,8.13797212 C1.56855984,7.67155894 0.779459715,7.69057034 0.289218904,8.18081115 C-0.253746876,8.72403042 0.0494216921,9.63024081 0.529776572,10.1942459 C6.16551802,16.8046388 5.31634184,23.4713054 5.31634184,23.4713054 L4.99314793,34.0152852 C4.12546732,33.6743473 3.11025819,33.409962 1.94523918,33.3105957 C1.39999203,33.2637009 0.929016115,33.6875285 0.929016115,34.235057 C0.929016115,34.5696578 1.10823031,34.8773891 1.39923158,35.0424081 C2.45018215,35.6378454 4.89302119,37.2806844 4.82001738,39.6548289 L4.7274952,42.6776426 C4.71203259,43.1742205 5.10975122,43.5858809 5.60683614,43.5879087 L14.0803469,43.6226593 C14.5698273,43.6246641 14.9672924,43.2287199 14.9672924,42.7392395 L14.9672924,35.2695311 C16.1051885,27.3062864 42.3607018,13.3465906 49.5097512,9.68245881 C50.4484078,9.20134347 50.6255941,7.91642586 49.8043013,7.19982256 C49.4131733,6.85837769 48.8613355,6.76408112 48.3619692,6.90552598 Z" id="Fill-6" fill="#7D5E40"></path>
                    <polygon id="Fill-8" fill="#8CBD45" points="77.5621974 35.5562738 75.2057969 35.5562738 75.2057969 34.1674271 81.6230339 34.1674271 81.6230339 35.5562738 79.2666334 35.5562738 79.2666334 41.5314322 77.5621974 41.5314322"></polygon>
                    <path d="M88.9029578,35.8877313 C88.6362911,35.666692 88.2469375,35.5561724 87.7351505,35.5561724 L86.3465573,35.5561724 L86.3465573,38.1229658 L87.7351505,38.1229658 C88.2469375,38.1229658 88.6362911,38.0109252 88.9029578,37.7865906 C89.169371,37.5620025 89.3027043,37.2464132 89.3027043,36.8395691 C89.3027043,36.4258809 89.169371,36.1085171 88.9029578,35.8877313 L88.9029578,35.8877313 Z M89.3341365,41.5315843 L87.9141112,39.4801267 L87.829954,39.4801267 L86.3465573,39.4801267 L86.3465573,41.5315843 L84.6421213,41.5315843 L84.6421213,34.1675792 L87.829954,34.1675792 C88.482172,34.1675792 89.0484584,34.2765779 89.5290668,34.493815 C90.0091682,34.711052 90.3792569,35.0197972 90.638826,35.4192902 C90.8981416,35.8190368 91.0281796,36.2925475 91.0281796,36.8395691 C91.0281796,37.3868441 90.8963672,37.858327 90.6335028,38.2545247 C90.3706384,38.6507224 89.9970009,38.9541445 89.5130972,39.1645374 L91.1648083,41.5315843 L89.3341365,41.5315843 Z" id="Fill-10" fill="#8CBD45"></path>
                    <polygon id="Fill-12" fill="#8CBD45" points="100.180322 40.1640558 100.180322 41.5316096 94.4784204 41.5316096 94.4784204 34.1676046 100.043693 34.1676046 100.043693 35.5351584 96.17221 35.5351584 96.17221 37.1341445 99.5912214 37.1341445 99.5912214 38.4596198 96.17221 38.4596198 96.17221 40.1640558"></polygon>
                    <polygon id="Fill-14" fill="#8CBD45" points="109.343186 40.1640558 109.343186 41.5316096 103.641285 41.5316096 103.641285 34.1676046 109.206304 34.1676046 109.206304 35.5351584 105.334821 35.5351584 105.334821 37.1341445 108.754086 37.1341445 108.754086 38.4596198 105.334821 38.4596198 105.334821 40.1640558"></polygon>
                    <path d="M117.306684,40.8056274 L117.885138,39.5222307 C118.200727,39.7536629 118.575886,39.9394677 119.01112,40.0796451 C119.445594,40.2203295 119.880322,40.2902915 120.315303,40.2902915 C120.799206,40.2902915 121.156874,40.2185551 121.38856,40.0745754 C121.619992,39.9308492 121.735835,39.7397212 121.735835,39.5011914 C121.735835,39.3257795 121.66714,39.1802788 121.530512,39.0646895 C121.39363,38.9491001 121.218218,38.856071 121.004529,38.7858555 C120.790588,38.7156401 120.501107,38.6385805 120.136595,38.5544233 C119.575379,38.4213435 119.116316,38.2880101 118.758649,38.1546768 C118.400474,38.021597 118.093756,37.8076553 117.837989,37.5131052 C117.581969,37.2183016 117.453959,36.8256527 117.453959,36.3346515 C117.453959,35.9070215 117.569548,35.5194423 117.800981,35.1721673 C118.032413,34.8251458 118.381209,34.5501141 118.847875,34.3463118 C119.314289,34.1430165 119.884124,34.0413688 120.557128,34.0413688 C121.02709,34.0413688 121.486405,34.0976426 121.935581,34.2096831 C122.384251,34.3217237 122.777153,34.4831939 123.113528,34.6935868 L122.587799,35.9873764 C121.907191,35.6018251 121.22709,35.4089227 120.546735,35.4089227 C120.069675,35.4089227 119.71733,35.4862357 119.489447,35.6403549 C119.261564,35.794981 119.147749,35.9980228 119.147749,36.2504943 C119.147749,36.5029658 119.279054,36.6907985 119.541919,36.8132319 C119.805036,36.9361724 120.206557,37.0570849 120.746481,37.1762231 C121.307698,37.3095564 121.767267,37.4431432 122.124935,37.5762231 C122.482603,37.7093029 122.789067,37.9196958 123.045594,38.2071483 C123.301107,38.4948542 123.429118,38.8839544 123.429118,39.3749556 C123.429118,39.7957414 123.311754,40.1797719 123.077026,40.5270469 C122.841792,40.8740684 122.489447,41.1493536 122.019739,41.3526489 C121.549523,41.5559442 120.977913,41.6578454 120.30491,41.6578454 C119.722654,41.6578454 119.159916,41.5790114 118.616443,41.42109 C118.072717,41.2631686 117.636215,41.0580989 117.306684,40.8056274 Z" id="Fill-16" fill="#8CBD45"></path>
                    <polygon id="Fill-18" fill="#8CBD45" points="132.402932 40.1640558 132.402932 41.5316096 126.701031 41.5316096 126.701031 34.1676046 132.26605 34.1676046 132.26605 35.5351584 128.394821 35.5351584 128.394821 37.1341445 131.813832 37.1341445 131.813832 38.4596198 128.394821 38.4596198 128.394821 40.1640558"></polygon>
                    <path d="M140.124834,35.8877313 C139.858167,35.666692 139.46856,35.5561724 138.957026,35.5561724 L137.56818,35.5561724 L137.56818,38.1229658 L138.957026,38.1229658 C139.46856,38.1229658 139.858167,38.0109252 140.124834,37.7865906 C140.390993,37.5620025 140.524327,37.2464132 140.524327,36.8395691 C140.524327,36.4258809 140.390993,36.1085171 140.124834,35.8877313 L140.124834,35.8877313 Z M140.556012,41.5315843 L139.135733,39.4801267 L139.051576,39.4801267 L137.56818,39.4801267 L137.56818,41.5315843 L135.863744,41.5315843 L135.863744,34.1675792 L139.051576,34.1675792 C139.704048,34.1675792 140.270081,34.2765779 140.750689,34.493815 C141.231044,34.711052 141.600879,35.0197972 141.860448,35.4192902 C142.119764,35.8190368 142.249802,36.2925475 142.249802,36.8395691 C142.249802,37.3868441 142.118243,37.858327 141.855125,38.2545247 C141.592261,38.6507224 141.218623,38.9541445 140.73472,39.1645374 L142.386684,41.5315843 L140.556012,41.5315843 Z" id="Fill-20" fill="#8CBD45"></path>
                    <polygon id="Fill-22" fill="#8CBD45" points="152.780043 34.1675539 149.592464 41.5315589 147.909067 41.5315589 144.732134 34.1675539 146.573452 34.1675539 148.81401 39.4276299 151.086253 34.1675539"></polygon>
                    <polygon id="Fill-24" fill="#8CBD45" points="155.494187 41.5315589 157.198623 41.5315589 157.198623 34.1675539 155.494187 34.1675539"></polygon>
                    <path d="M162.537001,41.1685932 C161.93041,40.8426109 161.453604,40.3901394 161.106329,39.8114322 C160.759308,39.2329785 160.58567,38.5789861 160.58567,37.849455 C160.58567,37.1201774 160.759308,36.466185 161.106329,35.8877313 C161.453604,35.3090241 161.93041,34.8565526 162.537001,34.5305703 C163.143592,34.2043346 163.825721,34.0413435 164.583389,34.0413435 C165.221412,34.0413435 165.798091,34.1536375 166.31368,34.3777186 C166.829523,34.6025602 167.262223,34.9249937 167.613047,35.3457795 L166.519003,36.3556654 C166.020905,35.7807605 165.403921,35.4930545 164.667546,35.4930545 C164.211272,35.4930545 163.804682,35.5929278 163.447014,35.7926743 C163.089599,35.9929278 162.810512,36.2715082 162.610765,36.6291762 C162.410765,36.9868441 162.310892,37.3936882 162.310892,37.849455 C162.310892,38.3054753 162.410765,38.7123194 162.610765,39.0699873 C162.810512,39.4276553 163.089599,39.7062357 163.447014,39.9064892 C163.804682,40.1062357 164.211272,40.206109 164.667546,40.206109 C165.403921,40.206109 166.020905,39.9153612 166.519003,39.3328517 L167.613047,40.3429911 C167.262223,40.770621 166.827495,41.0968568 166.308611,41.3214449 C165.789472,41.545526 165.211019,41.65782 164.572742,41.65782 C163.822172,41.65782 163.143592,41.4945754 162.537001,41.1685932" id="Fill-26" fill="#8CBD45"></path>
                    <polygon id="Fill-27" fill="#8CBD45" points="176.565594 40.1640558 176.565594 41.5316096 170.863693 41.5316096 170.863693 34.1676046 176.428712 34.1676046 176.428712 35.5351584 172.557229 35.5351584 172.557229 37.1341445 175.976494 37.1341445 175.976494 38.4596198 172.557229 38.4596198 172.557229 40.1640558"></polygon>
                    <path d="M180.757736,41.42109 C180.21401,41.2631686 179.777761,41.0580989 179.447977,40.8056274 L180.026431,39.5222307 C180.34202,39.7536629 180.717178,39.9394677 181.152413,40.0796451 C181.586887,40.2203295 182.021868,40.2902915 182.456595,40.2902915 C182.940499,40.2902915 183.298167,40.2185551 183.530106,40.0745754 C183.761538,39.9308492 183.877128,39.7397212 183.877128,39.5011914 C183.877128,39.3257795 183.808433,39.1802788 183.671804,39.0646895 C183.535176,38.9491001 183.359764,38.856071 183.145822,38.7858555 C182.931881,38.7156401 182.642654,38.6385805 182.277888,38.5544233 C181.716671,38.4213435 181.257609,38.2880101 180.899941,38.1546768 C180.541766,38.021597 180.235049,37.8076553 179.979282,37.5131052 C179.723262,37.2183016 179.595252,36.8256527 179.595252,36.3346515 C179.595252,35.9070215 179.710841,35.5194423 179.942273,35.1721673 C180.173706,34.8251458 180.522755,34.5501141 180.989168,34.3463118 C181.455581,34.1430165 182.025417,34.0413688 182.698674,34.0413688 C183.168636,34.0413688 183.627951,34.0976426 184.076874,34.2096831 C184.525543,34.3217237 184.918446,34.4831939 185.255074,34.6935868 L184.729092,35.9873764 C184.048737,35.6018251 183.368382,35.4089227 182.688028,35.4089227 C182.211221,35.4089227 181.858877,35.4862357 181.63074,35.6403549 C181.40311,35.794981 181.289041,35.9980228 181.289041,36.2504943 C181.289041,36.5029658 181.420347,36.6907985 181.683465,36.8132319 C181.946329,36.9361724 182.34785,37.0570849 182.888028,37.1762231 C183.448991,37.3095564 183.908813,37.4431432 184.266228,37.5762231 C184.623896,37.7093029 184.930613,37.9196958 185.186887,38.2071483 C185.4424,38.4948542 185.570664,38.8839544 185.570664,39.3749556 C185.570664,39.7957414 185.453047,40.1797719 185.218573,40.5270469 C184.983085,40.8740684 184.63074,41.1493536 184.161031,41.3526489 C183.691069,41.5559442 183.11946,41.6578454 182.446202,41.6578454 C181.863946,41.6578454 181.301209,41.5790114 180.757736,41.42109" id="Fill-28" fill="#8CBD45"></path>
                    <path d="M85.1140351,26.7332319 C85.1140351,27.089379 84.8253152,27.3778454 84.4694217,27.3778454 L80.3913482,27.3778454 C80.0354546,27.3778454 79.7467347,27.089379 79.7467347,26.7332319 L79.7467347,17.8693536 L69.21112,17.8693536 L69.21112,26.7332319 C69.21112,27.089379 68.9224001,27.3778454 68.5665066,27.3778454 L64.4884331,27.3778454 C64.1325396,27.3778454 63.8438197,27.089379 63.8438197,26.7332319 L63.8438197,4.83082383 C63.8438197,4.47493029 64.1325396,4.18621039 64.4884331,4.18621039 L68.5665066,4.18621039 C68.9224001,4.18621039 69.21112,4.47493029 69.21112,4.83082383 L69.21112,13.3301901 L79.7467347,13.3301901 L79.7467347,4.83082383 C79.7467347,4.47493029 80.0354546,4.18621039 80.3913482,4.18621039 L84.4694217,4.18621039 C84.8253152,4.18621039 85.1140351,4.47493029 85.1140351,4.83082383 L85.1140351,26.7332319 Z" id="Fill-29" fill="#8CBD45"></path>
                    <path d="M110.82349,18.3331305 L107.146177,9.45429658 L103.468611,18.3331305 L110.82349,18.3331305 Z M112.513477,22.4081622 L101.74567,22.4081622 L99.8561898,26.9792649 C99.75657,27.220583 99.5213355,27.3779975 99.260499,27.3779975 L95.1852138,27.3779975 C94.7182937,27.3779975 94.4059996,26.8971356 94.5961137,26.4707731 L104.358344,4.56836502 C104.46202,4.33591888 104.692692,4.186109 104.947191,4.186109 L109.41183,4.186109 C109.666076,4.186109 109.896494,4.33541191 110.000169,4.56760456 L119.793832,26.4702662 C119.984453,26.8963752 119.672413,27.3779975 119.205239,27.3779975 L114.998395,27.3779975 C114.737305,27.3779975 114.502324,27.220583 114.402704,26.9792649 L112.513477,22.4081622 Z" id="Fill-30" fill="#8CBD45"></path>
                    <path d="M129.888611,4.18621039 L133.966684,4.18621039 C134.322578,4.18621039 134.611297,4.47493029 134.611297,4.83082383 L134.611297,23.0044613 L145.595581,23.0044613 C145.951475,23.0044613 146.240195,23.2931812 146.240195,23.6490748 L146.240195,26.7332319 C146.240195,27.089379 145.951475,27.3778454 145.595581,27.3778454 L129.243997,27.3778454 L129.243997,4.83082383 C129.243997,4.47493029 129.532717,4.18621039 129.888611,4.18621039" id="Fill-31" fill="#8CBD45"></path>
                    <path d="M156.525391,4.18621039 L160.603465,4.18621039 C160.959358,4.18621039 161.248078,4.47493029 161.248078,4.83082383 L161.248078,23.0044613 L172.232362,23.0044613 C172.588509,23.0044613 172.876976,23.2931812 172.876976,23.6490748 L172.876976,26.7332319 C172.876976,27.089379 172.588509,27.3778454 172.232362,27.3778454 L155.880778,27.3778454 L155.880778,4.83082383 C155.880778,4.47493029 156.169498,4.18621039 156.525391,4.18621039" id="Fill-32" fill="#8CBD45"></path>
                    <path d="M184.688002,27.0301141 C183.209168,26.6007098 181.982045,26.0602788 181.00638,25.4085678 C180.74529,25.2341698 180.652007,24.8947529 180.781031,24.6085678 L182.070765,21.7474778 C182.232742,21.388289 182.672793,21.2620532 183.006633,21.4714322 C183.861133,22.0080608 184.835531,22.4526743 185.930334,22.8057795 C187.299663,23.247858 188.668991,23.4683904 190.038573,23.4683904 C191.562527,23.4683904 192.689016,23.2422814 193.41804,22.7893029 C194.146557,22.3368314 194.511323,21.7348035 194.511323,20.9834728 C194.511323,20.4318885 194.296114,19.9730798 193.865188,19.6085678 C193.434517,19.2440558 192.882172,18.9517871 192.208915,18.7307478 C191.534643,18.5102155 190.623617,18.2668695 189.475328,18.0017237 C187.708028,17.5824588 186.261893,17.1626869 185.135404,16.7429151 C184.008915,16.3233967 183.042375,15.6496324 182.236291,14.7216223 C181.429701,13.7941191 181.027166,12.5573638 181.027166,11.0113561 C181.027166,9.6643346 181.391678,8.4435488 182.120195,7.35026616 C182.849219,6.25698352 183.947825,5.39031686 185.417026,4.74975919 C186.885467,4.10894804 188.680398,3.78854246 190.800803,3.78854246 C192.280144,3.78854246 193.727039,3.96572877 195.140727,4.31858048 C196.338699,4.61845374 197.409929,5.02884664 198.354415,5.55051965 C198.641361,5.70894804 198.764555,6.05673004 198.641107,6.36040558 L197.464935,9.25368821 C197.322476,9.60425856 196.910055,9.75508238 196.573173,9.58245881 C194.637812,8.59158428 192.702451,8.09551331 190.767597,8.09551331 C189.265188,8.09551331 188.155429,8.33885932 187.438066,8.82453739 C186.719941,9.31072243 186.361259,9.95102662 186.361259,10.7462104 C186.361259,11.5411407 186.775201,12.1325222 187.603592,12.5185805 C188.431982,12.9051458 189.696114,13.2861343 191.397001,13.6615463 C193.163794,14.0815716 194.610943,14.5013435 195.737178,14.9206084 C196.863668,15.3403802 197.829701,16.0032446 198.636038,16.9084411 C199.442121,17.8146515 199.845417,19.0402535 199.845417,20.5860076 C199.845417,21.9112294 199.475328,23.1203549 198.735404,24.213891 C197.995227,25.3071736 196.885214,26.1740938 195.405873,26.8146515 C193.925772,27.4552091 192.126025,27.7751077 190.005619,27.7751077 C188.171906,27.7751077 186.399536,27.5269455 184.688002,27.0301141" id="Fill-33" fill="#8CBD45"></path>
                </g>
            </g>
        </g>
    </g>
</svg>