<?xml version="1.0" encoding="UTF-8"?>
<svg width="24px" height="24px" viewBox="0 0 24 24" version="1.1" xmlns="http://www.w3.org/2000/svg" xmlns:xlink="http://www.w3.org/1999/xlink">
    <title>27) Icon/menu</title>
    <defs>
        <path d="M16.051,16 C16.573,16 17,16.427 17,16.949 L17,16.949 L17,17.051 C17,17.573 16.573,18 16.051,18 L16.051,18 L3.948,18 C3.426,18 3,17.573 3,17.051 L3,17.051 L3,16.949 C3,16.427 3.426,16 3.948,16 L3.948,16 Z M11.051,11 C11.573,11 12,11.427 12,11.949 L12,11.949 L12,12.051 C12,12.573 11.573,13 11.051,13 L11.051,13 L3.948,13 C3.426,13 3,12.573 3,12.051 L3,12.051 L3,11.949 C3,11.427 3.426,11 3.948,11 L3.948,11 Z M20.051,6 C20.573,6 21,6.427 21,6.949 L21,6.949 L21,7.051 C21,7.573 20.573,8 20.051,8 L20.051,8 L3.948,8 C3.426,8 3,7.573 3,7.051 L3,7.051 L3,6.949 C3,6.427 3.426,6 3.948,6 L3.948,6 Z" id="path-1"></path>
    </defs>
    <g id="Symbols" stroke="none" stroke-width="1" fill="none" fill-rule="evenodd">
        <g id="Navigation-/-Mobile" transform="translate(-281.000000, -18.000000)">
            <g id="27)-Icon/menu" transform="translate(281.000000, 18.000000)">
                <rect id="Rectangle" x="0" y="0" width="24" height="24"></rect>
                <mask id="mask-2" fill="white">
                    <use xlink:href="#path-1"></use>
                </mask>
                <use id="🎨-Icon-Сolor" fill="#7D5E40" xlink:href="#path-1"></use>
            </g>
        </g>
    </g>
</svg>